<svg width="24" height="24" viewBox="0 0 24 24" fill="none" xmlns="http://www.w3.org/2000/svg">
<path d="M16.1144 16.8041C16.1143 17.8782 15.7788 18.8498 15.1183 19.559C14.4527 20.2736 13.5079 20.6664 12.4054 20.6664H7.04211C5.94011 20.6664 4.99562 20.2735 4.3302 19.559C3.66985 18.8498 3.33321 17.8782 3.33313 16.8041V11.7484C3.33318 10.6735 3.67144 9.70233 4.33215 8.99356C4.99794 8.27955 5.94252 7.88516 7.04211 7.88516H12.4064C13.5085 7.88516 14.4529 8.27895 15.1183 8.99356C15.7787 9.7028 16.1143 10.6743 16.1144 11.7484V16.8041Z" fill="black"/>
<path d="M20.0785 12.4298C20.444 12.4731 20.7056 12.8045 20.6625 13.17C20.5655 13.9924 20.2281 14.7258 19.6625 15.2618C19.0945 15.8001 18.3353 16.1016 17.4672 16.1271C17.0993 16.1377 16.7925 15.8485 16.7816 15.4806C16.7708 15.1126 17.0602 14.805 17.4281 14.7941C18.0024 14.7772 18.4387 14.5848 18.7455 14.2941C19.0547 14.001 19.2727 13.57 19.3383 13.0138C19.3815 12.6482 19.7129 12.3867 20.0785 12.4298ZM19.3334 10.6251V8.77063C19.3336 8.40257 19.6323 8.10461 20.0004 8.10461C20.3683 8.10486 20.6663 8.40272 20.6664 8.77063V10.6251C20.6664 10.9932 20.3684 11.2919 20.0004 11.2921C19.6322 11.2921 19.3334 10.9933 19.3334 10.6251ZM11.0844 3.33411C11.4524 3.32329 11.7601 3.61256 11.7709 3.98059C11.7817 4.34859 11.4915 4.65533 11.1234 4.66614C10.5494 4.68309 10.1137 4.87652 9.80704 5.16711C9.49782 5.46021 9.27987 5.89116 9.21426 6.44739C9.17097 6.81286 8.83957 7.07448 8.47403 7.03137C8.10847 6.98826 7.84708 6.65668 7.89004 6.29114C7.98703 5.46879 8.32447 4.73543 8.89004 4.19934C9.45796 3.66121 10.2165 3.35968 11.0844 3.33411ZM17.4672 3.33411C18.3353 3.35961 19.0945 3.66103 19.6625 4.19934C20.2281 4.73542 20.5655 5.4688 20.6625 6.29114C20.7054 6.65658 20.4439 6.98813 20.0785 7.03137C19.713 7.0745 19.3816 6.81286 19.3383 6.44739C19.2727 5.89115 19.0547 5.46021 18.7455 5.16711C18.4387 4.87636 18.0025 4.68301 17.4281 4.66614C17.0602 4.65523 16.7709 4.34854 16.7816 3.98059C16.7925 3.61265 17.0993 3.32344 17.4672 3.33411ZM15.2035 3.33313C15.5715 3.33332 15.8695 3.63205 15.8695 4.00012C15.8695 4.36819 15.5715 4.66693 15.2035 4.66711H13.349C12.9808 4.66711 12.682 4.36831 12.682 4.00012C12.682 3.63194 12.9808 3.33313 13.349 3.33313H15.2035Z" fill="black"/>
</svg>
