<svg width="24" height="24" viewBox="0 0 24 24" fill="none" xmlns="http://www.w3.org/2000/svg">
<path fill-rule="evenodd" clip-rule="evenodd" d="M17.3624 12.8099L16.4523 16.3302C16.3678 16.6547 16.075 16.8697 15.7553 16.8697C15.6958 16.8697 15.6344 16.862 15.5748 16.8467C15.1889 16.7478 14.9576 16.3542 15.0574 15.9692L15.9675 12.4489C16.0673 12.064 16.4648 11.8326 16.8449 11.9324C17.2299 12.0313 17.4622 12.4249 17.3624 12.8099ZM12.7688 16.1497C12.7688 16.5472 12.4462 16.8697 12.0488 16.8697C11.6513 16.8697 11.3288 16.5472 11.3288 16.1497V12.6294C11.3288 12.232 11.6513 11.9094 12.0488 11.9094C12.4462 11.9094 12.7688 12.232 12.7688 12.6294V16.1497ZM8.52361 16.8467C8.46313 16.862 8.40264 16.8697 8.34312 16.8697C8.02248 16.8697 7.73065 16.6547 7.64616 16.3302L6.73608 12.8099C6.6372 12.4249 6.8676 12.0313 7.25256 11.9324C7.63657 11.8316 8.03016 12.0649 8.13 12.4489L9.04105 15.9692C9.13993 16.3542 8.90857 16.7478 8.52361 16.8467ZM20.4996 9.48631C19.9236 8.74711 18.9828 8.38231 17.7156 8.38231H17.6484L14.0196 3.61111C13.7796 3.29431 13.3284 3.22711 13.0116 3.46711C12.6948 3.70711 12.6372 4.15831 12.8772 4.47511L15.8532 8.38231H8.1444L11.1204 4.47511C11.3604 4.15831 11.3028 3.70711 10.986 3.46711C10.6692 3.22711 10.218 3.28471 9.97804 3.61111L6.34921 8.38231H6.282C5.0148 8.38231 4.07401 8.74711 3.4884 9.48631C2.8644 10.2736 2.7204 11.416 3.0564 12.8752L3.97801 17.3296C4.37161 19.4512 5.93641 20.4016 7.31881 20.4016H16.6788C18.0612 20.4016 19.626 19.4512 20.01 17.3392L20.9412 12.8848C21.2772 11.416 21.1332 10.2736 20.4996 9.48631Z" fill="black"/>
</svg>
